:SAMPLES-PER-SECOND 30
:FULLY-SPECIFIED
:DEGREES
149
root  -67.2813 40.3414 13.4607 175.359 23.4135 177.446
RightUpLeg  3.05131 -13.6502 -3.20284
RightLeg  14.2845 -16.9644 -0.176401
RightFoot  -11.9992 -0.0930799 -2.07625
RightToes  6.35927e-011 1.30204e-014 -6.03759e-014
Spine  5.32197 -0.124783 4.41144
Spine1  13.1996 1.72307 -4.19931
HEad  -17.6715 -27.6266 8.00583
LeftShoulder1  -0.48902 4.90436 -28.7426
LeftArm  -13.9303 13.1085 -32.811
LeftForeArm  86.2374 -78.472 -107.209
LeftHand  -0.0163371 1.21467 0.275498
RightShoulder  -0.595832 -5.18729 28.6362
RightArm  -11.0237 -17.5156 39.1458
RightForeArm  103.858 74.9017 131.993
RightHand  -0.0506393 -1.29203 -1.2472
LeftUpLeg  -7.96703 34.3808 9.98702
LeftLeg  33.4488 18.256 12.819
LeftFoot  6.47877 -0.739026 4.4844
LeftToes  -7.16024e-010 4.79583e-011 -5.98286e-011
150
root  -66.9616 40.1597 13.3275 174.706 26.9731 177.667
RightUpLeg  2.92053 -12.5324 -2.27835
RightLeg  16.1787 -14.8301 -1.00818
RightFoot  -13.217 -0.126665 -2.28954
RightToes  6.35927e-011 1.30204e-014 -6.03759e-014
Spine  5.87369 -0.64923 5.13523
Spine1  13.022 1.13955 -3.24593
HEad  -17.2659 -27.2084 7.46484
LeftShoulder1  -0.489505 4.90316 -28.808
LeftArm  -14.0459 12.8218 -33.2894
LeftForeArm  85.2555 -78.5412 -106.103
LeftHand  -0.0180227 1.16173 0.325651
RightShoulder  -0.614834 -5.24332 28.6048
RightArm  -11.2269 -16.9994 38.6323
RightForeArm  107.423 73.9153 135.851
RightHand  -0.0735111 -1.46259 -1.96476
LeftUpLeg  -9.57126 26.9895 10.3127
LeftLeg  37.3723 9.68399 8.22038
LeftFoot  4.65711 -0.630071 4.25079
LeftToes  -7.16024e-010 4.79583e-011 -5.98286e-011
151
root  -66.6672 40.0427 13.1128 174.2 30.3983 177.428
RightUpLeg  2.98569 -11.6619 -2.00951
RightLeg  17.2314 -12.2844 -1.28821
RightFoot  -14.1911 -0.155092 -2.37766
RightToes  6.35927e-011 1.30204e-014 -6.03759e-014
Spine  6.00844 -0.952057 5.6189
Spine1  13.0383 0.771334 -2.46318
HEad  -16.4622 -26.3513 6.82638
LeftShoulder1  -0.483518 4.87973 -28.9726
LeftArm  -14.0545 12.1188 -34.0536
LeftForeArm  82.7939 -78.6897 -103.401
LeftHand  -0.0284215 1.10758 0.615827
RightShoulder  -0.578763 -5.15517 28.278
RightArm  -11.9559 -16.9038 38.5455
RightForeArm  110.527 72.9283 139.096
RightHand  -0.0947171 -1.77839 -2.77882
LeftUpLeg  -11.283 21.2087 9.21394
LeftLeg  39.928 4.39675 4.34813
LeftFoot  1.84066 -0.325989 2.72636
LeftToes  -7.16024e-010 4.79583e-011 -5.98286e-011
152
root  -66.3428 40.03 12.8388 173.835 34.021 176.753
RightUpLeg  3.33376 -11.0553 -2.31999
RightLeg  17.1034 -9.25087 -0.87119
RightFoot  -14.6616 -0.174372 -2.59743
RightToes  6.35927e-011 1.30204e-014 -6.03759e-014
Spine  5.72433 -0.964402 6.19501
Spine1  13.0388 0.838771 -2.60383
HEad  -15.5412 -24.617 7.11813
LeftShoulder1  -0.452915 4.79331 -28.9533
LeftArm  -13.9922 11.3104 -34.6507
LeftForeArm  80.6813 -78.7822 -101.244
LeftHand  -0.04431 1.17114 1.06125
RightShoulder  -0.535112 -5.04028 28.0213
RightArm  -12.9445 -17.357 38.6517
RightForeArm  113.96 71.8244 142.244
RightHand  -0.0955945 -2.11077 -3.0275
LeftUpLeg  -12.9865 16.614 7.23978
LeftLeg  40.5347 3.55715 3.63164
LeftFoot  0.278748 -0.145103 1.42333
LeftToes  -7.16024e-010 4.79583e-011 -5.98286e-011
153
root  -65.965 40.0631 12.5345 173.664 37.9153 176.124
RightUpLeg  3.82323 -10.5013 -2.57673
RightLeg  16.3668 -6.12446 -0.276051
RightFoot  -14.7935 -0.189821 -2.98118
RightToes  6.35927e-011 1.30204e-014 -6.03759e-014
Spine  5.37087 -0.733211 7.04273
Spine1  12.8316 1.22988 -3.26115
HEad  -15.0837 -23.9424 6.3558
LeftShoulder1  -0.411968 4.68441 -28.7245
LeftArm  -13.9832 10.7534 -35.0236
LeftForeArm  80.0399 -78.7957 -100.727
LeftHand  -0.0600528 1.35572 1.54137
RightShoulder  -0.535748 -5.04238 28.0135
RightArm  -13.6196 -17.758 38.5312
RightForeArm  117.124 70.7291 144.946
RightHand  -0.088324 -2.11643 -2.77691
LeftUpLeg  -14.5064 12.395 5.42574
LeftLeg  39.0661 4.80588 4.52808
LeftFoot  -0.705576 -0.0983928 1.10904
LeftToes  -7.16024e-010 4.79583e-011 -5.98286e-011
154
root  -65.528 40.0901 12.2109 173.577 41.8712 175.66
RightUpLeg  4.48537 -9.99003 -2.65381
RightLeg  15.4168 -2.94984 0.201181
RightFoot  -14.905 -0.205079 -3.35386
RightToes  6.35927e-011 1.30204e-014 -6.03759e-014
Spine  5.09772 -0.378725 7.57767
Spine1  12.6008 1.58095 -3.53006
HEad  -14.825 -23.1076 5.83473
LeftShoulder1  -0.386911 4.61861 -28.5357
LeftArm  -14.26 10.5502 -35.3034
LeftForeArm  80.52 -78.7708 -101.295
LeftHand  -0.0668644 1.49245 1.77945
RightShoulder  -0.56383 -5.12349 28.0337
RightArm  -13.7262 -17.4592 38.2892
RightForeArm  119.179 69.9271 146.688
RightHand  -0.0901891 -1.893 -2.69322
LeftUpLeg  -15.7747 8.58255 4.19556
LeftLeg  35.7179 5.69355 4.74004
LeftFoot  -1.54355 -0.0799898 1.0395
LeftToes  -7.16024e-010 4.79583e-011 -5.98286e-011
155
root  -65.0455 40.1034 11.8678 173.292 45.6423 175.072
RightUpLeg  5.36061 -9.6782 -2.91129
RightLeg  14.4493 0.388725 0.570239
RightFoot  -15.0767 -0.225047 -3.77471
RightToes  6.35927e-011 1.30204e-014 -6.03759e-014
Spine  4.8491 -0.0630643 7.40658
Spine1  12.6066 1.70537 -3.29828
HEad  -14.7486 -22.2413 5.31306
LeftShoulder1  -0.385012 4.6128 -28.5454
LeftArm  -14.9312 10.5443 -35.4153
LeftForeArm  81.4299 -78.7314 -102.244
LeftHand  -0.0627021 1.44346 1.64212
RightShoulder  -0.575289 -5.16447 27.877
RightArm  -13.4793 -16.5278 38.3783
RightForeArm  120.442 69.4898 147.592
RightHand  -0.0970218 -1.91728 -2.94626
LeftUpLeg  -16.792 5.45449 3.31168
LeftLeg  30.922 5.25175 3.73653
LeftFoot  -1.73732 -0.00613649 0.203169
LeftToes  -7.16024e-010 4.79583e-011 -5.98286e-011
